<svg xmlns="http://www.w3.org/2000/svg" viewBox="0 0 700 650" font-family="system-ui, -apple-system, sans-serif" font-size="13">
  <style>
    :root { --fg: #1a1a1a; --fg-dim: #666; --fg-faint: #999; --cell-bg: rgba(0,0,0,0.04); --line: #ccc; --accent-border: #d4a030; }
    @media (prefers-color-scheme: dark) {
      :root { --fg: #e4e4e7; --fg-dim: #a1a1aa; --fg-faint: #71717a; --cell-bg: rgba(255,255,255,0.06); --line: #52525b; --accent-border: #f59e0b; }
    }
    text { fill: var(--fg); }
    .dim { fill: var(--fg-dim); }
    .faint { fill: var(--fg-faint); }
    .cell { stroke: var(--line); stroke-width: 1; fill: var(--cell-bg); }
    .cell-bg { fill: var(--cell-bg); }
    .border-accent { fill: none; stroke: var(--accent-border); stroke-width: 1.5; }
    .title { font-size: 12px; fill: var(--fg-faint); }
    .small { font-size: 11px; }
    .sep { font-size: 15px; font-weight: 600; }
    .dots { fill: var(--fg-faint); font-size: 14px; }
  </style>

  <!-- Column headers -->
  <rect x="70" y="20" width="100" height="32" rx="4" fill="var(--cell-bg)" stroke="var(--line)" stroke-width="1.2"/>
  <text x="120" y="41" text-anchor="middle" font-size="12" font-weight="600">Controller</text>

  <rect x="300" y="20" width="100" height="32" rx="4" fill="var(--cell-bg)" stroke="var(--line)" stroke-width="1.2"/>
  <text x="350" y="41" text-anchor="middle" font-size="12" font-weight="600">WS Server</text>

  <rect x="530" y="20" width="100" height="32" rx="4" fill="var(--cell-bg)" stroke="var(--line)" stroke-width="1.2"/>
  <text x="580" y="41" text-anchor="middle" font-size="12" font-weight="600">DG-LAB APP</text>

  <!-- Lifelines -->
  <line x1="120" y1="52" x2="120" y2="640" stroke="var(--line)" stroke-width="1" stroke-dasharray="4,4" opacity="0.4"/>
  <line x1="350" y1="52" x2="350" y2="640" stroke="var(--line)" stroke-width="1" stroke-dasharray="4,4" opacity="0.4"/>
  <line x1="580" y1="52" x2="580" y2="640" stroke="var(--line)" stroke-width="1" stroke-dasharray="4,4" opacity="0.4"/>

  <!-- Section: Connection & Pairing -->
  <text x="22" y="100" font-size="11" font-weight="600" fill="#3b82f6" opacity="0.8">Connection</text>

  <!-- Section separator -->
  <line x1="40" y1="370" x2="660" y2="370" stroke="var(--line)" stroke-width="0.5" stroke-dasharray="2,3" opacity="0.2"/>
  <text x="22" y="388" font-size="11" font-weight="600" fill="#22c55e" opacity="0.8">Strength</text>

  <!-- Section separator -->
  <line x1="40" y1="528" x2="660" y2="528" stroke="var(--line)" stroke-width="0.5" stroke-dasharray="2,3" opacity="0.2"/>
  <text x="22" y="548" font-size="11" font-weight="600" fill="#f59e0b" opacity="0.8">Waveform</text>

  <!-- 1 -->
  <line x1="120" y1="120" x2="346" y2="120" stroke="#3b82f6" stroke-width="1.2"/>
  <polygon points="350,120 342,116 342,124" fill="#3b82f6"/>
  <text x="235" y="113" text-anchor="middle" font-size="10">WS connect (/clientId)</text>
  <text x="22" y="124" font-size="10" font-weight="600">1</text>

  <!-- 2 -->
  <line x1="350" y1="150" x2="124" y2="150" stroke="#f59e0b" stroke-width="1.2"/>
  <polygon points="120,150 128,146 128,154" fill="#f59e0b"/>
  <text x="235" y="143" text-anchor="middle" font-size="10">targetId (for QR code)</text>
  <text x="22" y="154" font-size="10" font-weight="600">2</text>

  <!-- 3 -->
  <line x1="580" y1="180" x2="124" y2="180" stroke="#22c55e" stroke-width="1.2"/>
  <polygon points="120,180 128,176 128,184" fill="#22c55e"/>
  <text x="350" y="173" text-anchor="middle" font-size="10">scan QR code -&gt; get ws server URL + controller clientId</text>
  <text x="22" y="184" font-size="10" font-weight="600">3</text>

  <!-- 4 -->
  <line x1="580" y1="210" x2="354" y2="210" stroke="#22c55e" stroke-width="1.2"/>
  <polygon points="350,210 358,206 358,214" fill="#22c55e"/>
  <text x="465" y="203" text-anchor="middle" font-size="10">WS connect (/targetId)</text>
  <text x="22" y="214" font-size="10" font-weight="600">4</text>

  <!-- 5 -->
  <line x1="350" y1="240" x2="576" y2="240" stroke="#f59e0b" stroke-width="1.2"/>
  <polygon points="580,240 572,236 572,244" fill="#f59e0b"/>
  <text x="465" y="233" text-anchor="middle" font-size="10">clientId</text>
  <text x="22" y="244" font-size="10" font-weight="600">5</text>

  <!-- 6 -->
  <line x1="580" y1="270" x2="354" y2="270" stroke="#22c55e" stroke-width="1.2"/>
  <polygon points="350,270 358,266 358,274" fill="#22c55e"/>
  <text x="465" y="263" text-anchor="middle" font-size="10">msg: bind {targetId, clientId}</text>
  <text x="22" y="274" font-size="10" font-weight="600">6</text>

  <!-- 7 -->
  <line x1="350" y1="300" x2="124" y2="300" stroke="#f59e0b" stroke-width="1.2"/>
  <polygon points="120,300 128,296 128,304" fill="#f59e0b"/>
  <text x="235" y="293" text-anchor="middle" font-size="10">msg: bind {targetId, clientId}</text>
  <text x="22" y="304" font-size="10" font-weight="600">7</text>

  <!-- 8 -->
  <line x1="350" y1="330" x2="576" y2="330" stroke="#f59e0b" stroke-width="1.2"/>
  <polygon points="580,330 572,326 572,334" fill="#f59e0b"/>
  <text x="465" y="323" text-anchor="middle" font-size="10">msg: bind {targetId, clientId}</text>
  <text x="22" y="334" font-size="10" font-weight="600">8</text>

  <!-- 9 -->
  <line x1="120" y1="400" x2="346" y2="400" stroke="#3b82f6" stroke-width="1.2"/>
  <polygon points="350,400 342,396 342,404" fill="#3b82f6"/>
  <text x="235" y="393" text-anchor="middle" font-size="10">msg: strength {channel, mode, value}</text>
  <text x="22" y="404" font-size="10" font-weight="600">9</text>

  <!-- 10 -->
  <line x1="350" y1="430" x2="576" y2="430" stroke="#f59e0b" stroke-width="1.2"/>
  <polygon points="580,430 572,426 572,434" fill="#f59e0b"/>
  <text x="465" y="423" text-anchor="middle" font-size="10">msg: strength (relayed)</text>
  <text x="22" y="434" font-size="10" font-weight="600">10</text>

  <!-- 11 -->
  <line x1="580" y1="460" x2="354" y2="460" stroke="#22c55e" stroke-width="1.2"/>
  <polygon points="350,460 358,456 358,464" fill="#22c55e"/>
  <text x="465" y="453" text-anchor="middle" font-size="10">msg: strength feedback</text>
  <text x="22" y="464" font-size="10" font-weight="600">11</text>

  <!-- 12 -->
  <line x1="350" y1="490" x2="124" y2="490" stroke="#f59e0b" stroke-width="1.2"/>
  <polygon points="120,490 128,486 128,494" fill="#f59e0b"/>
  <text x="235" y="483" text-anchor="middle" font-size="10">msg: strength feedback (relayed)</text>
  <text x="22" y="494" font-size="10" font-weight="600">12</text>

  <!-- 13 -->
  <line x1="120" y1="560" x2="346" y2="560" stroke="#3b82f6" stroke-width="1.2"/>
  <polygon points="350,560 342,556 342,564" fill="#3b82f6"/>
  <text x="235" y="553" text-anchor="middle" font-size="10">msg: pulse {channel, waveform}</text>
  <text x="22" y="564" font-size="10" font-weight="600">13</text>

  <!-- 14 -->
  <line x1="350" y1="590" x2="576" y2="590" stroke="#f59e0b" stroke-width="1.2"/>
  <polygon points="580,590 572,586 572,594" fill="#f59e0b"/>
  <text x="465" y="583" text-anchor="middle" font-size="10">msg: pulse (relayed)</text>
  <text x="22" y="594" font-size="10" font-weight="600">14</text>

  <!-- 15 -->
  <line x1="120" y1="620" x2="346" y2="620" stroke="#3b82f6" stroke-width="1.2"/>
  <polygon points="350,620 342,616 342,624" fill="#3b82f6"/>
  <text x="235" y="613" text-anchor="middle" font-size="10">msg: clear {channel}</text>
  <text x="22" y="624" font-size="10" font-weight="600">15</text>
</svg>
